<mxfile host="Electron" modified="2024-04-20T02:20:15.710Z" agent="Mozilla/5.0 (Windows NT 10.0; Win64; x64) AppleWebKit/537.36 (KHTML, like Gecko) draw.io/24.2.5 Chrome/120.0.6099.109 Electron/28.1.0 Safari/537.36" etag="zSyuR4ENLyBHCLfF42_M" version="24.2.5" type="device">
  <diagram name="ページ1" id="LE8fIzdrHe0wcv1LTvfw">
    <mxGraphModel dx="1019" dy="609" grid="1" gridSize="10" guides="1" tooltips="1" connect="1" arrows="1" fold="1" page="1" pageScale="1" pageWidth="1600" pageHeight="1200" math="0" shadow="0">
      <root>
        <mxCell id="0" />
        <mxCell id="cFaB45KztUIKXS-_cTrr-4" value="背景" style="locked=1;" parent="0" visible="0" />
        <mxCell id="cFaB45KztUIKXS-_cTrr-5" value="" style="rounded=0;whiteSpace=wrap;html=1;strokeWidth=3;" parent="cFaB45KztUIKXS-_cTrr-4" vertex="1">
          <mxGeometry x="1" y="1" width="1595" height="1180" as="geometry" />
        </mxCell>
        <mxCell id="cFaB45KztUIKXS-_cTrr-6" value="" style="rounded=0;whiteSpace=wrap;html=1;fillColor=#B3B3B3;fontColor=#333333;strokeColor=#666666;" parent="cFaB45KztUIKXS-_cTrr-4" vertex="1">
          <mxGeometry width="1595" height="60" as="geometry" />
        </mxCell>
        <mxCell id="cFaB45KztUIKXS-_cTrr-7" value="&lt;font style=&quot;font-size: 48px;&quot;&gt;×&lt;/font&gt;" style="rounded=0;whiteSpace=wrap;html=1;" parent="cFaB45KztUIKXS-_cTrr-4" vertex="1">
          <mxGeometry x="1550" y="10" width="40" height="40" as="geometry" />
        </mxCell>
        <mxCell id="cFaB45KztUIKXS-_cTrr-8" value="" style="rounded=0;whiteSpace=wrap;html=1;" parent="cFaB45KztUIKXS-_cTrr-4" vertex="1">
          <mxGeometry x="830" y="670" width="120" height="60" as="geometry" />
        </mxCell>
        <mxCell id="cFaB45KztUIKXS-_cTrr-9" value="ウインドウ" style="locked=1;" parent="0" />
        <mxCell id="cFaB45KztUIKXS-_cTrr-10" value="" style="rounded=0;whiteSpace=wrap;html=1;strokeWidth=3;" parent="cFaB45KztUIKXS-_cTrr-9" vertex="1">
          <mxGeometry x="1" y="1" width="1589" height="1159" as="geometry" />
        </mxCell>
        <mxCell id="cFaB45KztUIKXS-_cTrr-11" value="" style="rounded=0;whiteSpace=wrap;html=1;fillColor=#B3B3B3;fontColor=#333333;strokeColor=#666666;" parent="cFaB45KztUIKXS-_cTrr-9" vertex="1">
          <mxGeometry width="1595" height="60" as="geometry" />
        </mxCell>
        <mxCell id="cFaB45KztUIKXS-_cTrr-12" value="&lt;font style=&quot;font-size: 48px;&quot;&gt;×&lt;/font&gt;" style="rounded=0;whiteSpace=wrap;html=1;" parent="cFaB45KztUIKXS-_cTrr-9" vertex="1">
          <mxGeometry x="1550" y="10" width="40" height="40" as="geometry" />
        </mxCell>
        <mxCell id="cFaB45KztUIKXS-_cTrr-14" value="名称未設定レイヤ" style="" parent="0" />
        <mxCell id="iuLljrWptE0SfQuj8YOA-0" value="&lt;span style=&quot;font-size: 30px;&quot;&gt;ヘッダの有無&lt;/span&gt;" style="rounded=0;whiteSpace=wrap;html=1;align=right;dashed=1;dashPattern=8 8;verticalAlign=top;" parent="cFaB45KztUIKXS-_cTrr-14" vertex="1">
          <mxGeometry x="19" y="249" width="310" height="51" as="geometry" />
        </mxCell>
        <mxCell id="iuLljrWptE0SfQuj8YOA-2" value="&lt;span style=&quot;font-size: 30px;&quot;&gt;▼1日付&lt;/span&gt;" style="rounded=0;whiteSpace=wrap;html=1;align=left;" parent="cFaB45KztUIKXS-_cTrr-14" vertex="1">
          <mxGeometry x="87" y="326" width="137" height="48" as="geometry" />
        </mxCell>
        <mxCell id="iuLljrWptE0SfQuj8YOA-3" value="&lt;span style=&quot;font-size: 30px;&quot;&gt;Upload&lt;/span&gt;" style="rounded=1;whiteSpace=wrap;html=1;fillColor=#FFFFFF;strokeWidth=3;" parent="cFaB45KztUIKXS-_cTrr-14" vertex="1">
          <mxGeometry x="1300" y="155" width="210" height="60" as="geometry" />
        </mxCell>
        <mxCell id="iuLljrWptE0SfQuj8YOA-4" value="&lt;span style=&quot;font-size: 30px;&quot;&gt;サンプルとなるcsvファイルを表示&lt;/span&gt;" style="text;html=1;strokeColor=none;fillColor=none;align=left;verticalAlign=middle;whiteSpace=wrap;rounded=0;" parent="cFaB45KztUIKXS-_cTrr-14" vertex="1">
          <mxGeometry x="34" y="100" width="600" height="40" as="geometry" />
        </mxCell>
        <mxCell id="iuLljrWptE0SfQuj8YOA-5" value="" style="rounded=0;whiteSpace=wrap;html=1;strokeWidth=3;" parent="cFaB45KztUIKXS-_cTrr-14" vertex="1">
          <mxGeometry x="64" y="155" width="1203" height="60" as="geometry" />
        </mxCell>
        <mxCell id="iuLljrWptE0SfQuj8YOA-6" value="" style="childLayout=tableLayout;recursiveResize=0;shadow=0;fillColor=none;" parent="cFaB45KztUIKXS-_cTrr-14" vertex="1">
          <mxGeometry x="84" y="319" width="1360" height="240" as="geometry" />
        </mxCell>
        <mxCell id="iuLljrWptE0SfQuj8YOA-7" style="shape=tableRow;horizontal=0;startSize=0;swimlaneHead=0;swimlaneBody=0;top=0;left=0;bottom=0;right=0;dropTarget=0;collapsible=0;recursiveResize=0;expand=0;fontStyle=0;fillColor=none;strokeColor=inherit;" parent="iuLljrWptE0SfQuj8YOA-6" vertex="1">
          <mxGeometry width="1360" height="60" as="geometry" />
        </mxCell>
        <mxCell id="iuLljrWptE0SfQuj8YOA-8" value="" style="connectable=0;recursiveResize=0;strokeColor=inherit;fillColor=none;align=center;whiteSpace=wrap;html=1;" parent="iuLljrWptE0SfQuj8YOA-7" vertex="1">
          <mxGeometry width="160" height="60" as="geometry">
            <mxRectangle width="160" height="60" as="alternateBounds" />
          </mxGeometry>
        </mxCell>
        <mxCell id="iuLljrWptE0SfQuj8YOA-9" style="connectable=0;recursiveResize=0;strokeColor=inherit;fillColor=none;align=center;whiteSpace=wrap;html=1;" parent="iuLljrWptE0SfQuj8YOA-7" vertex="1">
          <mxGeometry x="160" width="190" height="60" as="geometry">
            <mxRectangle width="190" height="60" as="alternateBounds" />
          </mxGeometry>
        </mxCell>
        <mxCell id="iuLljrWptE0SfQuj8YOA-10" style="connectable=0;recursiveResize=0;strokeColor=inherit;fillColor=none;align=center;whiteSpace=wrap;html=1;" parent="iuLljrWptE0SfQuj8YOA-7" vertex="1">
          <mxGeometry x="350" width="170" height="60" as="geometry">
            <mxRectangle width="170" height="60" as="alternateBounds" />
          </mxGeometry>
        </mxCell>
        <mxCell id="iuLljrWptE0SfQuj8YOA-11" style="connectable=0;recursiveResize=0;strokeColor=inherit;fillColor=none;align=center;whiteSpace=wrap;html=1;" parent="iuLljrWptE0SfQuj8YOA-7" vertex="1">
          <mxGeometry x="520" width="258" height="60" as="geometry">
            <mxRectangle width="258" height="60" as="alternateBounds" />
          </mxGeometry>
        </mxCell>
        <mxCell id="iuLljrWptE0SfQuj8YOA-12" style="connectable=0;recursiveResize=0;strokeColor=inherit;fillColor=none;align=center;whiteSpace=wrap;html=1;" parent="iuLljrWptE0SfQuj8YOA-7" vertex="1">
          <mxGeometry x="778" width="194" height="60" as="geometry">
            <mxRectangle width="194" height="60" as="alternateBounds" />
          </mxGeometry>
        </mxCell>
        <mxCell id="iuLljrWptE0SfQuj8YOA-13" style="connectable=0;recursiveResize=0;strokeColor=inherit;fillColor=none;align=center;whiteSpace=wrap;html=1;" parent="iuLljrWptE0SfQuj8YOA-7" vertex="1">
          <mxGeometry x="972" width="194" height="60" as="geometry">
            <mxRectangle width="194" height="60" as="alternateBounds" />
          </mxGeometry>
        </mxCell>
        <mxCell id="iuLljrWptE0SfQuj8YOA-14" style="connectable=0;recursiveResize=0;strokeColor=inherit;fillColor=none;align=center;whiteSpace=wrap;html=1;" parent="iuLljrWptE0SfQuj8YOA-7" vertex="1">
          <mxGeometry x="1166" width="194" height="60" as="geometry">
            <mxRectangle width="194" height="60" as="alternateBounds" />
          </mxGeometry>
        </mxCell>
        <mxCell id="iuLljrWptE0SfQuj8YOA-15" value="" style="shape=tableRow;horizontal=0;startSize=0;swimlaneHead=0;swimlaneBody=0;top=0;left=0;bottom=0;right=0;dropTarget=0;collapsible=0;recursiveResize=0;expand=0;fontStyle=0;fillColor=none;strokeColor=inherit;" parent="iuLljrWptE0SfQuj8YOA-6" vertex="1">
          <mxGeometry y="60" width="1360" height="60" as="geometry" />
        </mxCell>
        <mxCell id="iuLljrWptE0SfQuj8YOA-16" value="&lt;font style=&quot;font-size: 30px;&quot;&gt;年月日&lt;br&gt;&lt;/font&gt;" style="connectable=0;recursiveResize=0;strokeColor=inherit;fillColor=none;align=center;whiteSpace=wrap;html=1;" parent="iuLljrWptE0SfQuj8YOA-15" vertex="1">
          <mxGeometry width="160" height="60" as="geometry">
            <mxRectangle width="160" height="60" as="alternateBounds" />
          </mxGeometry>
        </mxCell>
        <mxCell id="iuLljrWptE0SfQuj8YOA-17" value="&lt;font style=&quot;font-size: 30px;&quot;&gt;お引出し&lt;/font&gt;" style="connectable=0;recursiveResize=0;strokeColor=inherit;fillColor=none;align=center;whiteSpace=wrap;html=1;" parent="iuLljrWptE0SfQuj8YOA-15" vertex="1">
          <mxGeometry x="160" width="190" height="60" as="geometry">
            <mxRectangle width="190" height="60" as="alternateBounds" />
          </mxGeometry>
        </mxCell>
        <mxCell id="iuLljrWptE0SfQuj8YOA-18" value="&lt;font style=&quot;font-size: 30px;&quot;&gt;お預入れ&lt;/font&gt;" style="connectable=0;recursiveResize=0;strokeColor=inherit;fillColor=none;align=center;whiteSpace=wrap;html=1;" parent="iuLljrWptE0SfQuj8YOA-15" vertex="1">
          <mxGeometry x="350" width="170" height="60" as="geometry">
            <mxRectangle width="170" height="60" as="alternateBounds" />
          </mxGeometry>
        </mxCell>
        <mxCell id="iuLljrWptE0SfQuj8YOA-19" value="&lt;font style=&quot;font-size: 30px;&quot;&gt;お取り扱い内容&lt;/font&gt;" style="connectable=0;recursiveResize=0;strokeColor=inherit;fillColor=none;align=center;whiteSpace=wrap;html=1;" parent="iuLljrWptE0SfQuj8YOA-15" vertex="1">
          <mxGeometry x="520" width="258" height="60" as="geometry">
            <mxRectangle width="258" height="60" as="alternateBounds" />
          </mxGeometry>
        </mxCell>
        <mxCell id="iuLljrWptE0SfQuj8YOA-20" value="&lt;font style=&quot;font-size: 30px;&quot;&gt;残高&lt;/font&gt;" style="connectable=0;recursiveResize=0;strokeColor=inherit;fillColor=none;align=center;whiteSpace=wrap;html=1;" parent="iuLljrWptE0SfQuj8YOA-15" vertex="1">
          <mxGeometry x="778" width="194" height="60" as="geometry">
            <mxRectangle width="194" height="60" as="alternateBounds" />
          </mxGeometry>
        </mxCell>
        <mxCell id="iuLljrWptE0SfQuj8YOA-21" value="&lt;font style=&quot;font-size: 30px;&quot;&gt;メモ&lt;/font&gt;" style="connectable=0;recursiveResize=0;strokeColor=inherit;fillColor=none;align=center;whiteSpace=wrap;html=1;" parent="iuLljrWptE0SfQuj8YOA-15" vertex="1">
          <mxGeometry x="972" width="194" height="60" as="geometry">
            <mxRectangle width="194" height="60" as="alternateBounds" />
          </mxGeometry>
        </mxCell>
        <mxCell id="iuLljrWptE0SfQuj8YOA-22" value="&lt;font style=&quot;font-size: 30px;&quot;&gt;ラベル&lt;/font&gt;" style="connectable=0;recursiveResize=0;strokeColor=inherit;fillColor=none;align=center;whiteSpace=wrap;html=1;" parent="iuLljrWptE0SfQuj8YOA-15" vertex="1">
          <mxGeometry x="1166" width="194" height="60" as="geometry">
            <mxRectangle width="194" height="60" as="alternateBounds" />
          </mxGeometry>
        </mxCell>
        <mxCell id="iuLljrWptE0SfQuj8YOA-23" style="shape=tableRow;horizontal=0;startSize=0;swimlaneHead=0;swimlaneBody=0;top=0;left=0;bottom=0;right=0;dropTarget=0;collapsible=0;recursiveResize=0;expand=0;fontStyle=0;fillColor=none;strokeColor=inherit;" parent="iuLljrWptE0SfQuj8YOA-6" vertex="1">
          <mxGeometry y="120" width="1360" height="60" as="geometry" />
        </mxCell>
        <mxCell id="iuLljrWptE0SfQuj8YOA-24" value="&lt;font style=&quot;font-size: 30px;&quot;&gt;2022.09.01&lt;/font&gt;" style="connectable=0;recursiveResize=0;strokeColor=inherit;fillColor=none;align=center;whiteSpace=wrap;html=1;" parent="iuLljrWptE0SfQuj8YOA-23" vertex="1">
          <mxGeometry width="160" height="60" as="geometry">
            <mxRectangle width="160" height="60" as="alternateBounds" />
          </mxGeometry>
        </mxCell>
        <mxCell id="iuLljrWptE0SfQuj8YOA-25" value="" style="connectable=0;recursiveResize=0;strokeColor=inherit;fillColor=none;align=center;whiteSpace=wrap;html=1;" parent="iuLljrWptE0SfQuj8YOA-23" vertex="1">
          <mxGeometry x="160" width="190" height="60" as="geometry">
            <mxRectangle width="190" height="60" as="alternateBounds" />
          </mxGeometry>
        </mxCell>
        <mxCell id="iuLljrWptE0SfQuj8YOA-26" value="&lt;font style=&quot;font-size: 30px;&quot;&gt;200,000&lt;/font&gt;" style="connectable=0;recursiveResize=0;strokeColor=inherit;fillColor=none;align=right;whiteSpace=wrap;html=1;" parent="iuLljrWptE0SfQuj8YOA-23" vertex="1">
          <mxGeometry x="350" width="170" height="60" as="geometry">
            <mxRectangle width="170" height="60" as="alternateBounds" />
          </mxGeometry>
        </mxCell>
        <mxCell id="iuLljrWptE0SfQuj8YOA-27" value="&lt;span style=&quot;font-size: 30px;&quot;&gt;振込　会社&lt;/span&gt;" style="connectable=0;recursiveResize=0;strokeColor=inherit;fillColor=none;align=left;whiteSpace=wrap;html=1;" parent="iuLljrWptE0SfQuj8YOA-23" vertex="1">
          <mxGeometry x="520" width="258" height="60" as="geometry">
            <mxRectangle width="258" height="60" as="alternateBounds" />
          </mxGeometry>
        </mxCell>
        <mxCell id="iuLljrWptE0SfQuj8YOA-28" value="&lt;font style=&quot;font-size: 30px;&quot;&gt;246,802&lt;/font&gt;" style="connectable=0;recursiveResize=0;strokeColor=inherit;fillColor=none;align=right;whiteSpace=wrap;html=1;" parent="iuLljrWptE0SfQuj8YOA-23" vertex="1">
          <mxGeometry x="778" width="194" height="60" as="geometry">
            <mxRectangle width="194" height="60" as="alternateBounds" />
          </mxGeometry>
        </mxCell>
        <mxCell id="iuLljrWptE0SfQuj8YOA-29" style="connectable=0;recursiveResize=0;strokeColor=inherit;fillColor=none;align=center;whiteSpace=wrap;html=1;" parent="iuLljrWptE0SfQuj8YOA-23" vertex="1">
          <mxGeometry x="972" width="194" height="60" as="geometry">
            <mxRectangle width="194" height="60" as="alternateBounds" />
          </mxGeometry>
        </mxCell>
        <mxCell id="iuLljrWptE0SfQuj8YOA-30" style="connectable=0;recursiveResize=0;strokeColor=inherit;fillColor=none;align=center;whiteSpace=wrap;html=1;" parent="iuLljrWptE0SfQuj8YOA-23" vertex="1">
          <mxGeometry x="1166" width="194" height="60" as="geometry">
            <mxRectangle width="194" height="60" as="alternateBounds" />
          </mxGeometry>
        </mxCell>
        <mxCell id="iuLljrWptE0SfQuj8YOA-31" style="shape=tableRow;horizontal=0;startSize=0;swimlaneHead=0;swimlaneBody=0;top=0;left=0;bottom=0;right=0;dropTarget=0;collapsible=0;recursiveResize=0;expand=0;fontStyle=0;fillColor=none;strokeColor=inherit;" parent="iuLljrWptE0SfQuj8YOA-6" vertex="1">
          <mxGeometry y="180" width="1360" height="60" as="geometry" />
        </mxCell>
        <mxCell id="iuLljrWptE0SfQuj8YOA-32" value="&lt;font style=&quot;font-size: 30px;&quot;&gt;2022.09.01&lt;/font&gt;" style="connectable=0;recursiveResize=0;strokeColor=inherit;fillColor=none;align=center;whiteSpace=wrap;html=1;" parent="iuLljrWptE0SfQuj8YOA-31" vertex="1">
          <mxGeometry width="160" height="60" as="geometry">
            <mxRectangle width="160" height="60" as="alternateBounds" />
          </mxGeometry>
        </mxCell>
        <mxCell id="iuLljrWptE0SfQuj8YOA-33" value="&lt;font style=&quot;font-size: 30px;&quot;&gt;1,357&lt;/font&gt;" style="connectable=0;recursiveResize=0;strokeColor=inherit;fillColor=none;align=right;whiteSpace=wrap;html=1;" parent="iuLljrWptE0SfQuj8YOA-31" vertex="1">
          <mxGeometry x="160" width="190" height="60" as="geometry">
            <mxRectangle width="190" height="60" as="alternateBounds" />
          </mxGeometry>
        </mxCell>
        <mxCell id="iuLljrWptE0SfQuj8YOA-34" value="" style="connectable=0;recursiveResize=0;strokeColor=inherit;fillColor=none;align=center;whiteSpace=wrap;html=1;" parent="iuLljrWptE0SfQuj8YOA-31" vertex="1">
          <mxGeometry x="350" width="170" height="60" as="geometry">
            <mxRectangle width="170" height="60" as="alternateBounds" />
          </mxGeometry>
        </mxCell>
        <mxCell id="iuLljrWptE0SfQuj8YOA-35" value="&lt;font style=&quot;font-size: 30px;&quot;&gt;引落し&lt;/font&gt;" style="connectable=0;recursiveResize=0;strokeColor=inherit;fillColor=none;align=left;whiteSpace=wrap;html=1;" parent="iuLljrWptE0SfQuj8YOA-31" vertex="1">
          <mxGeometry x="520" width="258" height="60" as="geometry">
            <mxRectangle width="258" height="60" as="alternateBounds" />
          </mxGeometry>
        </mxCell>
        <mxCell id="iuLljrWptE0SfQuj8YOA-36" value="&lt;font style=&quot;font-size: 30px;&quot;&gt;135,791&lt;/font&gt;" style="connectable=0;recursiveResize=0;strokeColor=inherit;fillColor=none;align=right;whiteSpace=wrap;html=1;" parent="iuLljrWptE0SfQuj8YOA-31" vertex="1">
          <mxGeometry x="778" width="194" height="60" as="geometry">
            <mxRectangle width="194" height="60" as="alternateBounds" />
          </mxGeometry>
        </mxCell>
        <mxCell id="iuLljrWptE0SfQuj8YOA-37" style="connectable=0;recursiveResize=0;strokeColor=inherit;fillColor=none;align=center;whiteSpace=wrap;html=1;" parent="iuLljrWptE0SfQuj8YOA-31" vertex="1">
          <mxGeometry x="972" width="194" height="60" as="geometry">
            <mxRectangle width="194" height="60" as="alternateBounds" />
          </mxGeometry>
        </mxCell>
        <mxCell id="iuLljrWptE0SfQuj8YOA-38" style="connectable=0;recursiveResize=0;strokeColor=inherit;fillColor=none;align=center;whiteSpace=wrap;html=1;" parent="iuLljrWptE0SfQuj8YOA-31" vertex="1">
          <mxGeometry x="1166" width="194" height="60" as="geometry">
            <mxRectangle width="194" height="60" as="alternateBounds" />
          </mxGeometry>
        </mxCell>
        <mxCell id="iuLljrWptE0SfQuj8YOA-39" value="&lt;span style=&quot;font-size: 30px;&quot;&gt;▼支出&lt;/span&gt;" style="rounded=0;whiteSpace=wrap;html=1;align=left;" parent="cFaB45KztUIKXS-_cTrr-14" vertex="1">
          <mxGeometry x="257" y="326" width="137" height="48" as="geometry" />
        </mxCell>
        <mxCell id="iuLljrWptE0SfQuj8YOA-40" value="&lt;span style=&quot;font-size: 30px;&quot;&gt;▼収入&lt;/span&gt;" style="rounded=0;whiteSpace=wrap;html=1;align=left;" parent="cFaB45KztUIKXS-_cTrr-14" vertex="1">
          <mxGeometry x="454" y="326" width="137" height="48" as="geometry" />
        </mxCell>
        <mxCell id="iuLljrWptE0SfQuj8YOA-41" value="&lt;span style=&quot;font-size: 30px;&quot;&gt;▼摘要&lt;/span&gt;" style="rounded=0;whiteSpace=wrap;html=1;align=left;" parent="cFaB45KztUIKXS-_cTrr-14" vertex="1">
          <mxGeometry x="617" y="326" width="137" height="48" as="geometry" />
        </mxCell>
        <mxCell id="iuLljrWptE0SfQuj8YOA-42" value="&lt;span style=&quot;font-size: 30px;&quot;&gt;▼日付&lt;/span&gt;" style="rounded=0;whiteSpace=wrap;html=1;align=left;" parent="cFaB45KztUIKXS-_cTrr-14" vertex="1">
          <mxGeometry x="869" y="327" width="137" height="48" as="geometry" />
        </mxCell>
        <mxCell id="iuLljrWptE0SfQuj8YOA-43" value="&lt;span style=&quot;font-size: 30px;&quot;&gt;▼なし&lt;/span&gt;" style="rounded=0;whiteSpace=wrap;html=1;align=left;" parent="cFaB45KztUIKXS-_cTrr-14" vertex="1">
          <mxGeometry x="1065" y="326" width="137" height="48" as="geometry" />
        </mxCell>
        <mxCell id="iuLljrWptE0SfQuj8YOA-44" value="&lt;span style=&quot;font-size: 30px;&quot;&gt;▼日付&lt;/span&gt;" style="rounded=0;whiteSpace=wrap;html=1;align=left;" parent="cFaB45KztUIKXS-_cTrr-14" vertex="1">
          <mxGeometry x="1267" y="327" width="137" height="48" as="geometry" />
        </mxCell>
        <mxCell id="iuLljrWptE0SfQuj8YOA-45" value="&lt;div style=&quot;&quot;&gt;&lt;font style=&quot;font-size: 30px;&quot;&gt;スクロール&lt;/font&gt;&lt;/div&gt;" style="rounded=0;whiteSpace=wrap;html=1;align=left;verticalAlign=top;fillColor=#FFFFCC;" parent="cFaB45KztUIKXS-_cTrr-14" vertex="1">
          <mxGeometry x="83" y="562" width="1361" height="48" as="geometry" />
        </mxCell>
        <mxCell id="iuLljrWptE0SfQuj8YOA-46" value="&lt;div style=&quot;&quot;&gt;&lt;br&gt;&lt;/div&gt;" style="rounded=0;whiteSpace=wrap;html=1;align=left;verticalAlign=top;fillColor=#FFFF66;" parent="cFaB45KztUIKXS-_cTrr-14" vertex="1">
          <mxGeometry x="267" y="572" width="290" height="29" as="geometry" />
        </mxCell>
        <mxCell id="iuLljrWptE0SfQuj8YOA-47" value="&lt;span style=&quot;font-size: 30px;&quot;&gt;▼日付&lt;/span&gt;" style="rounded=0;whiteSpace=wrap;html=1;align=left;" parent="cFaB45KztUIKXS-_cTrr-14" vertex="1">
          <mxGeometry x="86" y="326" width="137" height="48" as="geometry" />
        </mxCell>
        <mxCell id="iuLljrWptE0SfQuj8YOA-48" value="&lt;span style=&quot;font-size: 30px;&quot;&gt;☑1行目はヘッダなので取り込まない&lt;/span&gt;" style="rounded=0;whiteSpace=wrap;html=1;align=left;dashed=1;dashPattern=8 8;verticalAlign=bottom;" parent="cFaB45KztUIKXS-_cTrr-14" vertex="1">
          <mxGeometry x="364" y="249" width="760" height="46" as="geometry" />
        </mxCell>
        <mxCell id="dCVu0rkNFsr91CzSjSnU-0" value="&lt;font style=&quot;font-size: 30px;&quot;&gt;お得Pay&lt;/font&gt;" style="rounded=0;whiteSpace=wrap;html=1;align=left;" vertex="1" parent="cFaB45KztUIKXS-_cTrr-14">
          <mxGeometry x="364" y="931" width="410" height="48" as="geometry" />
        </mxCell>
        <mxCell id="dCVu0rkNFsr91CzSjSnU-1" value="&lt;span style=&quot;font-size: 30px;&quot;&gt;申請&lt;/span&gt;" style="rounded=1;whiteSpace=wrap;html=1;" vertex="1" parent="cFaB45KztUIKXS-_cTrr-14">
          <mxGeometry x="1287" y="1050" width="210" height="60" as="geometry" />
        </mxCell>
        <mxCell id="dCVu0rkNFsr91CzSjSnU-2" value="&lt;span style=&quot;font-size: 30px;&quot;&gt;形式&lt;/span&gt;" style="rounded=0;whiteSpace=wrap;html=1;align=left;dashed=1;dashPattern=8 8;verticalAlign=bottom;" vertex="1" parent="cFaB45KztUIKXS-_cTrr-14">
          <mxGeometry x="804" y="934" width="200" height="46" as="geometry" />
        </mxCell>
        <mxCell id="dCVu0rkNFsr91CzSjSnU-3" value="&lt;span style=&quot;font-size: 30px;&quot;&gt;新読取り仕様名称&lt;/span&gt;" style="rounded=0;whiteSpace=wrap;html=1;align=right;dashed=1;dashPattern=8 8;verticalAlign=top;" vertex="1" parent="cFaB45KztUIKXS-_cTrr-14">
          <mxGeometry x="19" y="929" width="310" height="51" as="geometry" />
        </mxCell>
        <mxCell id="dCVu0rkNFsr91CzSjSnU-5" value="&lt;font style=&quot;font-size: 30px;&quot;&gt;1223&lt;/font&gt;" style="rounded=0;whiteSpace=wrap;html=1;align=left;fillColor=#CCCCCC;" vertex="1" parent="cFaB45KztUIKXS-_cTrr-14">
          <mxGeometry x="364" y="664" width="226" height="48" as="geometry" />
        </mxCell>
        <mxCell id="dCVu0rkNFsr91CzSjSnU-6" value="&lt;span style=&quot;font-size: 30px;&quot;&gt;各種Payなど&lt;/span&gt;&lt;div&gt;&lt;span style=&quot;font-size: 30px;&quot;&gt;金融機関名称&lt;/span&gt;&lt;/div&gt;" style="rounded=0;whiteSpace=wrap;html=1;align=right;dashed=1;dashPattern=8 8;verticalAlign=top;" vertex="1" parent="cFaB45KztUIKXS-_cTrr-14">
          <mxGeometry x="19" y="659" width="310" height="91" as="geometry" />
        </mxCell>
        <mxCell id="dCVu0rkNFsr91CzSjSnU-7" value="&lt;font style=&quot;font-size: 30px;&quot;&gt;お得Pay&lt;/font&gt;" style="rounded=0;whiteSpace=wrap;html=1;align=left;fillColor=#CCCCCC;" vertex="1" parent="cFaB45KztUIKXS-_cTrr-14">
          <mxGeometry x="616" y="664" width="410" height="48" as="geometry" />
        </mxCell>
        <mxCell id="dCVu0rkNFsr91CzSjSnU-9" value="&lt;font style=&quot;font-size: 30px;&quot;&gt;▼選択なし&lt;/font&gt;" style="rounded=0;whiteSpace=wrap;html=1;align=left;fillColor=#CCCCCC;" vertex="1" parent="cFaB45KztUIKXS-_cTrr-14">
          <mxGeometry x="364" y="776" width="410" height="48" as="geometry" />
        </mxCell>
        <mxCell id="dCVu0rkNFsr91CzSjSnU-10" value="&lt;span style=&quot;font-size: 30px;&quot;&gt;既存読取り形式&lt;/span&gt;" style="rounded=0;whiteSpace=wrap;html=1;align=right;dashed=1;dashPattern=8 8;verticalAlign=top;" vertex="1" parent="cFaB45KztUIKXS-_cTrr-14">
          <mxGeometry x="19" y="774" width="310" height="51" as="geometry" />
        </mxCell>
        <mxCell id="dCVu0rkNFsr91CzSjSnU-11" value="&lt;span style=&quot;font-size: 30px;&quot;&gt;新規／変更&lt;/span&gt;" style="rounded=0;whiteSpace=wrap;html=1;align=right;dashed=1;dashPattern=8 8;verticalAlign=top;" vertex="1" parent="cFaB45KztUIKXS-_cTrr-14">
          <mxGeometry x="19" y="849" width="310" height="51" as="geometry" />
        </mxCell>
        <mxCell id="dCVu0rkNFsr91CzSjSnU-12" value="&lt;font style=&quot;font-size: 84px;&quot;&gt;○&lt;/font&gt;" style="text;html=1;strokeColor=none;fillColor=none;align=center;verticalAlign=middle;whiteSpace=wrap;rounded=0;fontSize=60;" vertex="1" parent="cFaB45KztUIKXS-_cTrr-14">
          <mxGeometry x="350" y="856" width="60" height="30" as="geometry" />
        </mxCell>
        <mxCell id="dCVu0rkNFsr91CzSjSnU-13" value="&lt;font style=&quot;font-size: 48px;&quot;&gt;●&lt;/font&gt;" style="text;html=1;strokeColor=none;fillColor=none;align=center;verticalAlign=middle;whiteSpace=wrap;rounded=0;fontSize=48;" vertex="1" parent="cFaB45KztUIKXS-_cTrr-14">
          <mxGeometry x="350" y="858" width="60" height="30" as="geometry" />
        </mxCell>
        <mxCell id="dCVu0rkNFsr91CzSjSnU-14" value="&lt;font style=&quot;font-size: 84px;&quot;&gt;○&lt;/font&gt;" style="text;html=1;strokeColor=none;fillColor=none;align=center;verticalAlign=middle;whiteSpace=wrap;rounded=0;fontSize=60;" vertex="1" parent="cFaB45KztUIKXS-_cTrr-14">
          <mxGeometry x="634" y="860" width="60" height="30" as="geometry" />
        </mxCell>
        <mxCell id="dCVu0rkNFsr91CzSjSnU-16" value="&lt;span style=&quot;font-size: 30px;&quot;&gt;新規&lt;/span&gt;" style="rounded=0;whiteSpace=wrap;html=1;align=left;dashed=1;dashPattern=8 8;verticalAlign=bottom;" vertex="1" parent="cFaB45KztUIKXS-_cTrr-14">
          <mxGeometry x="404" y="853" width="200" height="46" as="geometry" />
        </mxCell>
        <mxCell id="dCVu0rkNFsr91CzSjSnU-17" value="&lt;span style=&quot;font-size: 30px;&quot;&gt;変更&lt;/span&gt;" style="rounded=0;whiteSpace=wrap;html=1;align=left;dashed=1;dashPattern=8 8;verticalAlign=bottom;" vertex="1" parent="cFaB45KztUIKXS-_cTrr-14">
          <mxGeometry x="708" y="856" width="200" height="46" as="geometry" />
        </mxCell>
      </root>
    </mxGraphModel>
  </diagram>
</mxfile>
